# xmcd
# 
# Track frame offsets:
#     150
#     13335
#     33309
#     57790
#     76474
#     93283
#     114078
#     131879
#     153339
#     170296
#     191034
#     209758
# 
# Disc length: 3070
# 
# Revision: 0
# Processed by: cddbd v1.5.2PL0 Copyright (c) Steve Scherf et al.
# Submitted via: fre:ac v1.0.31
# 
DISCID=9d0bfc0c
DTITLE=Mick Fleetwood - Something Big
DYEAR=2004
DGENRE=Rock/Pop
TTITLE0=Bitter End
TTITLE1=Something Big
TTITLE2=Where The Wind Blows
TTITLE3=It's Only Money
TTITLE4=Walking With The Angels
TTITLE5=Making Other Plans
TTITLE6=These Walls
TTITLE7=Looking Into You
TTITLE8=Passion
TTITLE9=No Borders
TTITLE10=Watching Over You
TTITLE11=Heaven Sent
EXTD=Label: Sanctuary Records Group Limited\nSANCD311
EXTT0=
EXTT1=
EXTT2=
EXTT3=
EXTT4=
EXTT5=
EXTT6=
EXTT7=
EXTT8=
EXTT9=
EXTT10=
EXTT11=
PLAYORDER=
